<?xml version="1.0" encoding="UTF-8"?>
<svg width="24px" height="24px" viewBox="0 0 24 24" version="1.1" xmlns="http://www.w3.org/2000/svg" xmlns:xlink="http://www.w3.org/1999/xlink">
    <!-- Generator: Sketch 46.2 (44496) - http://www.bohemiancoding.com/sketch -->
    <title>Icon PDF Solid</title>
    <desc>Created with Sketch.</desc>
    <defs></defs>
    <g id="Events" stroke="none" stroke-width="1" fill="none" fill-rule="evenodd">
        <g id="Group-11" transform="translate(-1216.000000, -732.000000)">
            <g id="Group-6">
                <g id="Group" transform="translate(80.000000, 411.000000)">
                    <g id="Icon-PDF-Solid" transform="translate(1136.000000, 321.000000)">
                        <rect id="Background" fill="#DB5565" x="0" y="0" width="24" height="24"></rect>
                        <path d="M12.0586123,6.17693716 C12.3515356,6.30049827 12.2861323,6.48752792 12.1894189,7.36663482 C12.0899224,8.27747599 11.7594271,9.93643577 11.1213971,11.5650117 C10.4826714,13.1956132 9.53501946,14.7958308 8.70912898,15.9821525 C7.88463007,17.1671237 7.17771792,17.9375239 6.63988024,18.3818037 C6.09925943,18.8260835 5.72562575,18.9442431 5.48140708,18.9847549 C5.23927575,19.0252667 5.12934257,18.9847549 5.06393928,18.8665954 C4.99853599,18.7484358 4.97557526,18.5492526 5.03193341,18.3136088 C5.08690001,18.0752641 5.21840236,17.7984332 5.59134027,17.4446298 C5.96775707,17.0888009 6.58352208,16.654649 7.44280998,16.2481802 C8.30209788,15.843737 9.40212554,15.4676521 10.3059433,15.2117523 C11.2097611,14.9545022 11.9138902,14.8167619 12.5303509,14.7087303 C13.1482033,14.6000236 13.6763001,14.5210255 14.1932644,14.481864 C14.7116202,14.4413522 15.2188436,14.4413522 15.7142387,14.481864 C16.2096339,14.5210255 16.6945923,14.6000236 17.1134517,14.697252 C17.5316152,14.796506 17.8843755,14.9153407 18.1926059,15.1037208 C18.5001405,15.2907504 18.7652326,15.5480006 18.896735,15.8342843 C19.0303247,16.1212431 19.0303247,16.4372355 18.9196957,16.6641017 C18.8097625,16.890968 18.5885046,17.0300587 18.3359365,17.1077064 C18.0833685,17.1867045 17.7967073,17.2062852 17.4550795,17.1077064 C17.1134517,17.0091276 16.7154657,16.7923892 16.2979979,16.5047552 C15.8805301,16.2191467 15.4394058,15.8646681 14.8667791,15.3110063 C14.2941524,14.7573445 13.5886318,14.0051747 12.994436,13.2752865 C12.4002402,12.5440478 11.9138902,11.833065 11.5833948,11.230789 C11.254291,10.6278378 11.077563,10.1342686 10.9342324,9.63934896 C10.7909018,9.14577972 10.6809686,8.65221049 10.6371345,8.20793066 C10.5933003,7.76230044 10.6141737,7.36731002 10.6587036,7.05334327 C10.7025377,6.73600053 10.7700284,6.49968147 10.8792658,6.3416853 C10.989199,6.18301394 11.1443578,6.10401585 11.254291,6.06485441 C11.3642242,6.02434257 11.4310191,6.02434257 11.4964224,6.01556501 C11.5618256,6.00611224 11.6272289,5.98585632 11.728117,6.01556501 C11.8241346,6.0425729 11.952158,6.118195 12.0586123,6.17693716 L12.0586123,6.17693716 Z" id="Shape" stroke="#FFFFFF" stroke-width="1.57"></path>
                    </g>
                </g>
            </g>
        </g>
    </g>
</svg>