<?xml version="1.0" encoding="UTF-8"?>
<svg width="41px" height="40px" viewBox="0 0 41 40" version="1.1" xmlns="http://www.w3.org/2000/svg" xmlns:xlink="http://www.w3.org/1999/xlink">
    <!-- Generator: Sketch 46.2 (44496) - http://www.bohemiancoding.com/sketch -->
    <title>Group 26</title>
    <desc>Created with Sketch.</desc>
    <defs></defs>
    <g id="Page-1" stroke="none" stroke-width="1" fill="none" fill-rule="evenodd">
        <g id="Group-27" transform="translate(-57.000000, 0.000000)" fill="#000000">
            <g id="Group-26" transform="translate(57.333333, 0.000000)">
                <path d="M0,20 C0,8.95430446 8.95430446,0 20,0 C31.0456955,0 40,8.95430446 40,20 C40,31.0456955 31.0456955,40 20,40 C8.95430446,40 0,31.0456955 0,20 Z M30.4093891,15.9742302 C30.4093891,15.9742302 30.2010236,14.4720309 29.5626128,13.8105182 C28.7524502,12.9418996 27.8444291,12.9378119 27.4283636,12.887398 C24.4473381,12.6666667 19.9757999,12.6666667 19.9757999,12.6666667 L19.96648,12.6666667 C19.96648,12.6666667 15.4949418,12.6666667 12.5139163,12.887398 C12.0971852,12.9378119 11.1898297,12.9418996 10.3790014,13.8105182 C9.74059067,14.4720309 9.53289081,15.9742302 9.53289081,15.9742302 C9.53289081,15.9742302 9.31986532,17.7387183 9.31986532,19.5025251 L9.31986532,21.1566476 C9.31986532,22.9211356 9.53289081,24.6849425 9.53289081,24.6849425 C9.53289081,24.6849425 9.74059067,26.1871418 10.3790014,26.8486545 C11.1898297,27.7172731 12.2542915,27.6900224 12.7282732,27.7806312 C14.4324772,27.9482235 19.97114,28 19.97114,28 C19.97114,28 24.4473381,27.9931873 27.4283636,27.772456 C27.8444291,27.7213608 28.7524502,27.7172731 29.5626128,26.8486545 C30.2010236,26.1871418 30.4093891,24.6849425 30.4093891,24.6849425 C30.4093891,24.6849425 30.6224146,22.9211356 30.6224146,21.1566476 L30.6224146,19.5025251 C30.6224146,17.7387183 30.4093891,15.9742302 30.4093891,15.9742302 Z" id="Combined-Shape"></path>
                <polygon id="Path" points="17.7056006 22.9411765 17.704918 17.0588235 23.6065574 20.0101409"></polygon>
            </g>
        </g>
    </g>
</svg>